<?xml version="1.0" encoding="UTF-8"?>
<svg xmlns="http://www.w3.org/2000/svg" xmlns:xlink="http://www.w3.org/1999/xlink" version="1.1" viewBox="0 0 74 74">
  <!-- Generator: Adobe Illustrator 29.2.1, SVG Export Plug-In . SVG Version: 2.1.0 Build 116)  -->
  <defs>
    <style>
      .st0, .st1, .st2, .st3, .st4 {
        fill: none;
      }

      .st1, .st2, .st5, .st6, .st7, .st8, .st9, .st10, .st11, .st12, .st13, .st14, .st15, .st16, .st3, .st4, .st17, .st18 {
        stroke: #000;
        stroke-miterlimit: 10;
      }

      .st1, .st2, .st9, .st10, .st11, .st12 {
        stroke-linecap: round;
      }

      .st1, .st5, .st7, .st9, .st12, .st13, .st15, .st3, .st17 {
        stroke-width: .2px;
      }

      .st2, .st6, .st8, .st10, .st11, .st14, .st16, .st4, .st18 {
        stroke-width: .2px;
      }

      .st6, .st11, .st12 {
        fill: #203957;
      }

      .st7, .st8 {
        fill: #c3e4f8;
      }

      .st19 {
        fill: #5983a1;
      }

      .st20 {
        fill: #ffafa4;
      }

      .st9, .st10, .st21, .st22, .st15, .st16 {
        fill: #fff;
      }

      .st23 {
        fill: #bbedff;
      }

      .st23, .st24 {
        mix-blend-mode: multiply;
      }

      .st25 {
        fill: #ffccc0;
      }

      .st26 {
        isolation: isolate;
      }

      .st21 {
        stroke: #e57373;
      }

      .st13, .st14 {
        fill: #74b9b3;
      }

      .st17, .st18 {
        fill: #f0ef89;
      }

      .st27 {
        fill: #ffbdbd;
      }

      .st28 {
        display: none;
      }
    </style>
  </defs>
  <g class="st26">
    <g id="_レイヤー_1" data-name="レイヤー_1">
      <circle class="st21" cx="37" cy="37" r="36.5"/>
      <rect class="st0" x="12" y="9" width="50" height="52.9"/>
    </g>
    <g id="_レイヤー_2" data-name="レイヤー_2" class="st28">
      <path id="_後ろ髪" data-name="後ろ髪" class="st7" d="M15.8,24s.6-4.7,5.5-7.4,9.4-1.4,9.4-1.4c0,0,3.1-1.7,7.7-1.5s6.6,1.8,6.6,1.8c0,0,4.1-1.2,8.7,2,4.6,3.2,4.4,7.7,4.4,7.7,0,0,2.6.8,3.9,5.6,1.3,4.8-1.2,8-1.2,8,0,0,1.9,2.4-.5,5.4s-5.9,2.1-5.9,2.1c0,0-.8,2.6-4.3,4s-7.8-.6-7.8-.6c0,0-.8,2.9-5.7,3.6s-7-2.9-7-2.9c0,0-1.6,2.8-5.5,1.2s-3.1-3.7-3.1-3.7c0,0-5,1.3-7.1-2.7s.3-8.6.3-8.6c0,0-2.4-2-1.7-7s3.3-5.6,3.3-5.6Z"/>
      <g id="_体と羽" data-name="体と羽">
        <path id="_左はねパス" data-name="左はねパス" class="st15" d="M32.4,51.2c0-.4-4.5-1.5-8.8-4s-5.5-4.9-6.9-5.1c-2.2-.3-3.7.3-4.8,2.2s-.7,2.8.1,3.9,2.1,1.2,2.1,1.2c0,0,0,2.7,2.5,3.6s4.1,0,4.1,0c0,0,1.1,1.9,3.7,1.9s4-.7,5.3-1.4,2.7-1.6,2.6-2.3Z"/>
        <path id="_右はねパス" data-name="右はねパス" class="st15" d="M43.2,50.5c0-.3,3.5-.8,6.9-3s6.7-6.2,8.4-6.5,3.7.2,4.9,2,.8,2.8,0,3.9-2,1.3-2,1.3c0,0,.1,2.7-2.3,3.7-2.5,1-4.1,0-4.1,0,0,0-1,2-3.7,2s-4-.5-5.4-1.2-2.7-1.5-2.7-2.2Z"/>
        <path id="_体パス" data-name="体パス" class="st15" d="M36.5,48.4c-2.2,0-4.5.6-6.7,1.7-2.2,1.1-4.2,3.8-2.9,4.2,3.2,1.1,7.8,1.1,10.3,1,3.9,0,8.9-.7,10.2-1.8s.2-2.8-2.2-3.8-5.6-1.4-8.6-1.4Z"/>
      </g>
      <g id="_スカーフ" data-name="スカーフ">
        <path class="st17" d="M42,61c0-.6,2.7-1.1,3.4-1.1s1.6-.2,1.9,0-.5.7-1.1.9-2.2.4-3,.4-1.2.2-1.2-.4Z"/>
        <path class="st17" d="M29.2,50.4c1.7.4,5.5,4.4,7.9,4.3s6.7-3.4,8.9-4.5c1.2.2,3.6,2,3.5,3.2-1,.8-1.7,1-4.2,1.4s-5.6.4-7.4.5c-2.5,0-5.8.5-8.2,0-1.7-.4-3.5-.9-3.4-1.5.1-.9,1.2-2.8,2.9-3.4Z"/>
        <path class="st17" d="M35.8,54.8c-1.1-.1-3.5,1.5-5,2.4s-4.2,3.1-3.9,3.9,3.8,1.5,6.3.2,3.6-4.1,3.6-5,0-1.5-1-1.6Z"/>
        <path class="st17" d="M37.1,54.8c-.5.7,1.3,3.9,1.9,4.5s2,2,2.9,2.2c.7,0,1.3-.4,2.5-.7s2-.3,3-.3c.5-.6-2.3-2.8-3.6-3.6s-6.2-2.8-6.7-2.1Z"/>
        <path id="_結び目パス" data-name="結び目パス" class="st17" d="M36.4,53.9c.5-.4,1.3-.2,1.7,0s.4,2.8,0,3.1-1,.4-1.5,0-.7-2.9-.1-3.2Z"/>
      </g>
      <path id="_顔" data-name="顔" class="st9" d="M32.6,51.7c-5.8-.6-8.9-2-10-3.6-1.3-1.7-.5-4.6-.5-5.5s-1.2-3.8-1.3-5.5-.2-4.4-.2-4.4c0,0-3.9-5-2.4-8.2,1.2.3,2.9.3,4.4,0s4,.2,4.6.2c0,0,2.3-.8,9.5-.9s12,1,12,1c0,0,1.5-.4,3.2-.3,2.7.2,4.4,0,4.4,0,0,0,2,3.1-2.4,8.1.2,1.6.2,3.7,0,5.3s-1.1,3.3-1.5,4.6.2,1.4.4,2c.4,1.5,0,2.9-.8,3.7-1.5,1.4-4.4,2.5-9.5,3.3"/>
      <path id="_鼻" data-name="鼻" class="st12" d="M36.1,43.7c.1-.2,1.6-.2,1.7,0s-.6.5-.9.5-1-.3-.9-.5Z"/>
      <g id="_耳" data-name="耳" class="st24">
        <path class="st20" d="M18.2,24.8c-.9,1.2.2,4.8.8,5.4.6,0,4.8-4.6,4.9-5.6-1.5.3-4.6.6-5.8.3Z"/>
        <path class="st20" d="M51.7,24.6c-.1.6,2.2,5.1,3.7,6,1.1-1.2,1.8-4.9.9-6-.8.2-3.7,0-4.6,0Z"/>
      </g>
      <g id="_頬" data-name="頬">
        <ellipse class="st25" cx="27" cy="47.4" rx="3" ry="2.1" transform="translate(-.8 .5) rotate(-.9)"/>
        <ellipse class="st25" cx="46.7" cy="47.4" rx="3" ry="2.1" transform="translate(-.8 .8) rotate(-.9)"/>
      </g>
      <g id="_耳線" data-name="耳線">
        <path class="st1" d="M19,25.7s1,1.5,2.8,2.2,2.3,2,2.3,2"/>
        <path class="st1" d="M54.5,26s-1,.1-2.6,1.5-3,1.7-3,1.7"/>
      </g>
      <g>
        <path class="st5" d="M24.4,43.5s0,0,0,0c.3-.2,2.6-1.5,4.5-1.4s3,1.3,3.3,1.7,0,0,0,0c-.5,0-2.2-.4-3.5-.4s-3.9,0-4.3.1Z"/>
        <path class="st5" d="M50.1,43.5s0,0,0,0c-.3-.2-2.6-1.5-4.5-1.4s-3,1.3-3.3,1.7,0,0,0,0c.5,0,2.2-.4,3.5-.4s3.9,0,4.3.1Z"/>
      </g>
      <path id="_前髪" data-name="前髪" class="st7" d="M28.3,20.2s-3.4,2.1-2.6,6.7c.6,3.6,4.1,5.1,4.1,5.1,0,0,.3,2,3.1,2.7s3.8-.1,3.8-.1c0,0,.9.5,2.5,1s2.7,0,2.7,0c0,0,2.3,1.2,5,.2s3.7-2.8,3.3-4.3-2.3-1.5-2.7-2.6.3-5.5-1-9.2-4.6-3.9-4.6-3.9c0,0-1.4-2.4-5.6-1.9-8,.8-7.9,6.3-7.9,6.3Z"/>
      <g id="_角" data-name="角">
        <path class="st13" d="M34.6,25s-.2-3.5.1-7.4.7-7.6,1.5-9.7.6-.4.7,0c.8,2.2,1.5,6.6,1.7,7.7s1.4,8.9,1.4,8.9c0,0,0,1.6-2.6,1.9s-2.8-1.5-2.8-1.5Z"/>
        <path class="st3" d="M34.7,17.1s1,.2,2,0c1.5-.2,2-.8,2-.8"/>
        <path class="st3" d="M35.1,13.2s.7,0,1.5,0,1.5-.5,1.5-.5"/>
        <path class="st3" d="M34.5,24.7s1.2.4,3,.2c1.4-.2,2.2-.7,2.4-.8"/>
        <path class="st3" d="M34.5,21.1s.5.5,2.3.3,2.5-.8,2.5-.8"/>
      </g>
      <g>
        <path class="st27" d="M37.8,46.5c1.2,0,2.6-.2,2.6-.2,0,0,.7,1,0,2.2s-2.5,1.6-3.3,1.6-2.1-.3-2.9-1.2-.4-2.6-.4-2.6c0,0,1.5.2,2.7.2"/>
        <path d="M37.8,46.5c.9,0,1.8-.2,2.7-.3,1.3,2.1-1.2,4-3.2,4-1.5,0-3.4-.7-3.5-2.4,0-.5,0-1.1.1-1.6,0,0,0,0,0,0,.9.1,1.8.2,2.7.3-.9,0-1.8,0-2.7-.2h0c-.2.9-.2,2,.6,2.7,1.5,1.3,4,1.2,5.4,0,.7-.7,1-1.8.4-2.6-.6.1-1.8.1-2.6.2h0Z"/>
      </g>
      <g id="_その他" data-name="その他">
        <path class="st23" d="M30.5,16c-.2.2-.7,1.7-.9,2.5s.4,2.3.4,2.3c0,0-1.3.4-2.3,1.1s-2,2.6-2,2.6h-1.7s-.2-.9.8-2.8,2.9-2.5,2.9-2.5c0,0,.1-1.6,1.1-2.4s1.7-.8,1.7-.8Z"/>
        <path class="st23" d="M12.8,34.1s1.3,1.9,2.1,1.9,2.1-.7,2.1-.7c0,0-.9,1.2-1.8,2.8s-2.1,3.7-2.1,3.7c0,0,0-1.6.4-3.1s.7-2,.7-2l-1.5-2.6Z"/>
        <path class="st23" d="M18.1,27.8l.9,2.4.7,2.3s-.2,3.7,0,4.9.5,2.5.4,3.6-1.5,2.4-1.5,2.4l3.1,2.6.4-3.2s-1.7-4.9-1.6-6.5,0-3.8,0-3.8c0,0-.3-1.4-1-2.2s-1.5-2.4-1.5-2.4Z"/>
        <path class="st23" d="M27.6,30.5s1,.8,1.8.8,1.9-.2,1.9-.2c0,0,.6,2,1.8,2.6s3.6-.3,3.6-.3c0,0,.7,1.3,2.5,1.5s3.1-1,3.1-1c0,0,1.7,1.6,3.7,1.3s4-2.2,4-2.2c0,0-.2,2.4-3.2,3.6-1.8.9-5-.2-5-.2,0,0-1.3.3-2.7,0s-2.5-1-2.5-1c0,0-1.5.6-3.8.1s-3.8-3.3-3.8-3.3l-1.4-1.9Z"/>
        <path class="st23" d="M41.9,15.8s3,.4,4.1,2.7c1.1,2.3,1.4,6.1,1.4,6.1l1.3.3,2-.4-1.7-1.2s.3-1.6-.3-3.1-2-3-2-3c0,0,.2-.5-.4-1.4-.4-.6-1.2-.3-1.2-.3,0,0-2-.9-2.8-1.2s-3.8-.7-3.9-.5,1.3.5,1.9.7,1.6,1.3,1.6,1.3Z"/>
        <path class="st23" d="M56.7,26.9s.2,2.1,0,3.3-1.2,2.1-1.2,2.1c0,0,.8,4,.6,5.7s-1.6,4.1-1.6,4.1v1.8l-1.7,1.6-.5-2.8,1.5-4.6v-5.3s1-1.3,1.6-2.1,1.3-3.8,1.3-3.8Z"/>
        <path class="st23" d="M62.4,33.1c0,.4-1,3.1-1.7,4s-2.3,1-2.3,1c0,0,1.3.8,1.8,1.2s1.3,2,1.3,2v-1.2c-.1,0-.7-1.3-.7-1.3,0,0,1.1-1.9,1.3-2.7s.3-3,.3-3Z"/>
        <path class="st23" d="M11.5,46.3s.6.3,1.9.5,2.3,0,2.3,0c0,0-.3,3.3,1.5,4.1s3.7-.5,3.7-.5c0,0,1,2.3,3.2,2.7s2.8-.5,2.8-.5c0,0-1,1-.1,2-1.2.2-2.6.4-4.1,0s-2-1.6-2-1.6c0,0-1.9.7-4.1,0s-2.5-3.6-2.5-3.6c0,0-1.6,0-2.1-1.2s-.5-1.9-.5-1.9Z"/>
        <path class="st23" d="M49,52.2c.5,0,2.4.2,3.3-.3s2.2-1.9,2.2-1.9c0,0,3.5-.1,4.6-.9s1.1-2.1,1.1-2.1c0,0,2.3-.5,2.7-1.1s.6-2.9.6-2.9c0,0,1.1,2.7,0,3.9s-2,1.3-2,1.3c0,0-.2,2.4-1.8,3.4s-4.6.3-4.6.3c0,0-.7,1.1-2.1,1.7s-3.2.3-3.6,0c.7-.3-.3-1.6-.3-1.6Z"/>
        <path class="st23" d="M30,51.4s5.2.8,7.2.7,6.6-.7,6.6-.7c0,0-3.3,3.9-6.6,4s-7.1-4-7.1-4Z"/>
        <path class="st23" d="M26.9,61.2s3.7-.2,5.5-1.3,3.7-4,3.7-4c0,0,.5.4,1.2.3s1.1-.3,1.1-.3c0,0,1.1,2.2,2.7,3.5s6.8.3,6.4,1-4.4,1-5.5,1-3.1-2.3-3.5-3-.6-1.1-.6-1.1h-1c0,0-1.3,2.2-2.3,3.2s-1.8,1.3-4,1.6-3.6-.9-3.6-.9Z"/>
        <path class="st23" d="M38.4,13.8l1.1.4s2.8,10.3,2.6,11.2c-.3.6-1.2,1.2-1.9,1.2s-2.1-.1-2.1-.1c0,0,1.6-.5,1.9-1.4,0-1.1-1.6-11.2-1.6-11.2Z"/>
        <path class="st23" d="M19.8,26.5s1.3,4.9,2.2,4.9,2.2-1.5,2.2-1.5c0,0,0-.9-1.6-1.7s-2.7-1.6-2.7-1.6Z"/>
        <path class="st23" d="M49.4,29s1.8-.4,2.5-1.5,2.6-1.5,2.6-1.5c0,0-1.5,3.8-1.3,3.2s-1.2,2.4-2.1,2.3-1.7-2.4-1.7-2.4Z"/>
      </g>
      <path id="_角1" data-name="角" class="st23" d="M36.9,7.9c-.5,0,.5,3.4.5,3.9s-.2.7-.5.8-1.2.6-1.1.6,1.2-.1,1.2-.1l.6-.2s.3,1.9.3,2.5,0,1.2-.4,1.4-1.3.3-1.3.3h1.3l.6-.3s.3,1.1.3,1.8,0,1.3-.3,1.6-.9.7-1.1.8l-1,.3h1.5c0,.1,1.2-.4,1.2-.4v1.7c0,.5.1.9-.1,1.2s-1.3.6-1.6.7l-.6.2h1.1c0,0,1.2-.2,1.2-.2,0,0,.3.6,0,.9s-1.7.5-1.7.5l-.9.2s1.1.4,2,0,1.6-.7,1.9-1.4-2.2-15.8-3-17.1Z"/>
      <g>
        <path class="st22" d="M35.2,13.9s-.3,2.7-.3,3.1c.4,0,1.1,0,1.5,0s1-.3,1-.3c0,0-1.7.2-1.9,0s-.4-1-.4-1.7,0-1.8,0-1.8v.6Z"/>
        <path class="st22" d="M34.8,17.3c0,0-.2,2.5-.2,3.8.4.2,1,.3,1.3.3.9-.1,1.8-.8,1.8-.8,0,0-1.2.5-1.8.5s-.8-.3-.9-.5-.2-1.6-.3-2.1,0-1.2,0-1.2Z"/>
        <path class="st22" d="M34.6,22.2s0,2,0,2.5c1,.1,1.2.2,2,0s1.7-.6,1.7-.6c0,0-2.3.4-2.8.2s-.6-.4-.7-1-.2-2.1-.2-2.1v.9Z"/>
        <path class="st22" d="M35.6,12.9c-.2-.2.2-2,.2-2l.2-.9c0,.1.2.2.3.2s.3-.1.3-.3-.1-.3-.3-.3-.2,0-.2,0l.4-1.9c-.4.1-.8,2.3-.8,2.6s0,.5-.1.8-.3,1.9-.3,1.9c0,0,.4,0,.8,0,.7-.2,1-.5,1-.5,0,0-1.3.5-1.4.3Z"/>
        <circle class="st22" cx="36.5" cy="10.5" r=".1"/>
        <circle class="st22" cx="35.5" cy="16" r=".3"/>
        <circle class="st22" cx="35.3" cy="20" r=".4"/>
        <circle class="st22" cx="37.3" cy="43.8" r=".1"/>
        <path class="st22" d="M26,23.7c.4-.7.9-1.3,1.8-2s2.2-.9,2.2-.9c0,0-1.8,1.3-2.4,2s-1,1.5-1.3,2.5.4,4.1.4,4.1c0,0-.7-.9-1-2.5s-.2-2.4.2-3.1Z"/>
        <path class="st22" d="M30,20.8s-1.2-2-.2-3.9,2.2-1.8,2.2-1.8c0,0-1.3,1.7-1.5,2.2-.3.8-.6,3.6-.6,3.6Z"/>
        <path class="st22" d="M15.9,24c.2-1.5,1.1-3.2,2.3-4.7s3.2-2.6,3.2-2.6c0,0-2.2,2.2-3.3,3.9s-1.2,4.4-1.2,4.4c0,0-1.5.9-2.8,2.4s-1.6,4.7-1.6,4.7c0,0-.2-2.7.8-5.1,1-2.3,2.6-2.9,2.6-2.9Z"/>
        <circle class="st22" cx="18.8" cy="20.6" r=".7"/>
        <circle class="st22" cx="19.8" cy="20.7" r=".1"/>
        <circle class="st22" cx="30.6" cy="18.5" r=".5"/>
        <circle class="st22" cx="31.7" cy="18.9" r=".3"/>
        <circle class="st22" cx="36" cy="20.3" r=".2"/>
      </g>
    </g>
    <g id="_レイヤー_3" data-name="レイヤー_3">
      <path id="_後ろ髪1" data-name="後ろ髪" class="st8" d="M15.7,23.9s.6-4.7,5.5-7.4,9.4-1.4,9.4-1.4c0,0,3.1-1.7,7.8-1.5s6.6,1.8,6.6,1.8c0,0,4.1-1.2,8.7,2,4.6,3.2,4.4,7.7,4.4,7.7,0,0,2.6.8,3.9,5.6s-1.2,8-1.2,8c0,0,1.9,2.4-.5,5.4s-5.9,2.1-5.9,2.1c0,0-.8,2.6-4.3,4-3.5,1.4-7.8-.6-7.8-.6,0,0-.8,2.9-5.8,3.6-4.2.6-7.1-2.9-7.1-2.9,0,0-1.6,2.8-5.6,1.2s-3.1-3.7-3.1-3.7c0,0-5,1.3-7.1-2.7-2.1-4,.3-8.6.3-8.6,0,0-2.4-2-1.7-7s3.3-5.6,3.3-5.6Z"/>
      <g id="_体と羽1" data-name="体と羽">
        <path id="_左はねパス1" data-name="左はねパス" class="st16" d="M32.3,51.2c0-.4-4.5-1.5-8.8-4s-5.5-4.9-6.9-5.1c-2.2-.3-3.7.3-4.8,2.2s-.7,2.8.1,3.9,2.1,1.2,2.1,1.2c0,0,0,2.7,2.5,3.6s4.1,0,4.1,0c0,0,1.1,1.9,3.7,1.9,1.8,0,4-.7,5.4-1.4s2.7-1.6,2.6-2.3Z"/>
        <path id="_右はねパス1" data-name="右はねパス" class="st16" d="M43.2,50.5c0-.3,3.5-.8,6.9-3s6.7-6.2,8.4-6.5,3.7.2,4.9,2,.8,2.8,0,3.9-2,1.3-2,1.3c0,0,.1,2.7-2.3,3.7s-4.1,0-4.1,0c0,0-1,2-3.7,2s-4-.5-5.4-1.2-2.7-1.5-2.7-2.2Z"/>
        <path id="_体パス1" data-name="体パス" class="st16" d="M36.4,48.4c-2.2,0-4.5.6-6.7,1.7s-4.2,3.8-2.9,4.3c3.2,1.1,7.8,1.1,10.3,1,3.9,0,8.9-.7,10.2-1.8,1.3-1.1.2-2.8-2.2-3.8s-5.6-1.4-8.6-1.4Z"/>
      </g>
      <g id="_スカーフ1" data-name="スカーフ">
        <path class="st18" d="M42,61c0-.6,2.7-1.1,3.4-1.1s1.6-.2,1.9,0-.5.7-1.1.9-2.3.4-3,.4-1.2.2-1.2-.4Z"/>
        <path class="st18" d="M29.1,50.4c1.7.4,5.5,4.4,7.9,4.3s6.7-3.4,8.9-4.5c1.2.2,3.7,2,3.5,3.2-1,.8-1.7,1-4.2,1.4s-5.6.4-7.4.5c-2.5,0-5.9.5-8.2,0s-3.5-.9-3.4-1.5c.1-.9,1.2-2.8,2.9-3.4Z"/>
        <path class="st18" d="M35.8,54.8c-1.1-.1-3.5,1.5-5,2.4s-4.2,3.1-3.9,4,3.9,1.5,6.4.2,3.6-4.1,3.6-5,0-1.5-1-1.6Z"/>
        <path class="st18" d="M37.1,54.7c-.5.7,1.3,3.9,1.9,4.5s2,2,2.9,2.2c.7,0,1.3-.4,2.5-.7s2-.3,3-.3c.5-.6-2.3-2.8-3.7-3.6s-6.2-2.8-6.7-2.1Z"/>
        <path id="_結び目パス1" data-name="結び目パス" class="st18" d="M36.3,53.9c.5-.4,1.3-.2,1.7,0s.4,2.8,0,3.1-1,.4-1.5,0-.7-2.9-.1-3.2Z"/>
      </g>
      <g id="_顔ベース" data-name="顔ベース">
        <path id="_顔1" data-name="顔" class="st10" d="M32.5,51.7c-5.8-.6-8.9-2-10-3.6-1.3-1.7-.5-4.6-.5-5.5s-1.2-3.8-1.3-5.5-.2-4.4-.2-4.4c0,0-3.9-5-2.4-8.2,1.2.3,2.9.3,4.4,0s4,.2,4.6.2c0,0,2.3-.8,9.5-.9s12,1,12,1c0,0,1.5-.4,3.2-.3,2.7.2,4.4,0,4.4,0,0,0,2,3.1-2.4,8.1.2,1.6.2,3.7,0,5.4s-1.1,3.3-1.5,4.6.2,1.4.4,2c.4,1.5,0,2.9-.8,3.7-1.5,1.4-4.4,2.5-9.6,3.3"/>
        <path id="_鼻1" data-name="鼻" class="st11" d="M36.1,43.6c.1-.2,1.6-.2,1.7,0s-.6.5-.9.5-1-.3-.9-.5Z"/>
        <g id="_耳1" data-name="耳" class="st24">
          <path class="st20" d="M18.1,24.7c-.9,1.2.2,4.8.8,5.4.6,0,4.8-4.6,5-5.7-1.5.3-4.6.6-5.8.3Z"/>
          <path class="st20" d="M51.7,24.6c-.1.6,2.2,5.1,3.7,6.1,1.1-1.2,1.8-4.9.9-6.1-.8.2-3.7,0-4.6,0Z"/>
        </g>
        <g id="_頬1" data-name="頬">
          <ellipse class="st25" cx="26.8" cy="48" rx="3" ry="2.1" transform="translate(-.8 .4) rotate(-.9)"/>
          <ellipse class="st25" cx="46.7" cy="48" rx="3" ry="2.1" transform="translate(-.8 .8) rotate(-.9)"/>
        </g>
        <g id="_耳線1" data-name="耳線">
          <path class="st2" d="M18.9,25.6s1,1.5,2.8,2.2,2.3,2,2.3,2"/>
          <path class="st2" d="M54.4,25.9s-1,.1-2.6,1.5-3,1.7-3,1.7"/>
        </g>
      </g>
      <g id="_目" data-name="目">
        <g>
          <path class="st6" d="M25.4,42.6c0-2.6,1.9-4.7,3.7-4.8s3.1,2.5,3.1,4.5-1.3,3.4-3.3,3.4-3.5-1.1-3.5-3.2Z"/>
          <path class="st22" d="M29.2,40.5c-.9,0-1.5-.7-1.6-1.2s.5-1.2,1.5-1.3,1.6,1,1.6,1.4-.6,1.1-1.5,1.1Z"/>
          <path class="st19" d="M28.6,45.5c-1,0-2.3-.7-2.2-1.8s1.6-1.4,2.4-1.4,2.5.4,2.5,1.4-1.1,1.8-2.7,1.8Z"/>
        </g>
        <g>
          <path class="st6" d="M48.9,42.4c-.1-2.5-2.1-4.6-3.9-4.5s-3.1,2.5-3,4.5,1.5,3.3,3.5,3.3,3.5-1.2,3.5-3.2Z"/>
          <path class="st22" d="M45,40.5c.9,0,1.6-.7,1.5-1.3s-.6-1.2-1.6-1.2-1.6,1-1.6,1.4.7,1.1,1.6,1Z"/>
          <path class="st19" d="M45.8,45.4c1,0,2.4-.8,2.2-1.8s-1.7-1.3-2.5-1.3-2.5.5-2.5,1.4,1.2,1.7,2.8,1.6Z"/>
        </g>
      </g>
      <path id="_前髪1" data-name="前髪" class="st8" d="M28.2,20.1s-3.4,2.2-2.6,6.7c.6,3.6,4.1,5.2,4.1,5.2,0,0,.3,2,3.1,2.7s3.8-.1,3.8-.1c0,0,.9.5,2.5,1s2.7,0,2.7,0c0,0,2.3,1.2,5,.2s3.7-2.8,3.3-4.3-2.3-1.5-2.7-2.6.3-5.6-1-9.2-4.6-3.9-4.6-3.9c0,0-1.4-2.4-5.7-1.9-8,.8-7.9,6.3-7.9,6.3Z"/>
      <g id="_角2" data-name="角">
        <path class="st14" d="M34.5,24.9s-.2-3.5.1-7.4.7-7.6,1.5-9.7.6-.4.7,0c.8,2.2,1.5,6.6,1.7,7.8s1.4,9,1.4,9c0,0,0,1.6-2.6,1.9s-2.8-1.5-2.8-1.5Z"/>
        <path class="st4" d="M34.7,17.1s1,.2,2,0c1.5-.2,2-.8,2-.8"/>
        <path class="st4" d="M35.1,13.1s.8,0,1.5,0,1.5-.5,1.5-.5"/>
        <path class="st4" d="M34.5,24.6s1.2.4,3,.2c1.4-.2,2.2-.7,2.4-.8"/>
        <path class="st4" d="M34.5,21s.5.5,2.3.3,2.5-.8,2.5-.8"/>
      </g>
      <path id="_口" data-name="口" class="st2" d="M35.5,46.3s.7.9,1.7.9,1.6-.9,1.6-.9"/>
      <g id="_その他1" data-name="その他">
        <path class="st23" d="M30.4,15.9c-.2.2-.7,1.7-.9,2.5s.4,2.3.4,2.3c0,0-1.3.4-2.3,1.1s-2,2.6-2,2.6h-1.7s-.2-.9.8-2.8,2.9-2.5,2.9-2.5c0,0,.1-1.6,1.1-2.4s1.7-.9,1.7-.9Z"/>
        <path class="st23" d="M12.6,34s1.3,1.9,2.1,1.9,2.1-.7,2.1-.7c0,0-.9,1.2-1.8,2.8s-2.1,3.7-2.1,3.7c0,0,0-1.6.4-3.1s.7-2,.7-2l-1.5-2.6Z"/>
        <path class="st23" d="M18,27.7l.9,2.4.7,2.3s-.2,3.7,0,4.9.5,2.5.4,3.6-1.5,2.4-1.5,2.4l3.1,2.6.4-3.2s-1.7-4.9-1.6-6.6,0-3.8,0-3.8c0,0-.3-1.4-1-2.2s-1.5-2.4-1.5-2.4Z"/>
        <path class="st23" d="M27.5,30.4s1,.8,1.8.8,1.9-.2,1.9-.2c0,0,.6,2,1.8,2.6s3.6-.3,3.6-.3c0,0,.7,1.3,2.5,1.5s3.1-1,3.1-1c0,0,1.7,1.6,3.7,1.3s4-2.2,4-2.2c0,0-.2,2.4-3.2,3.7-1.8.9-5-.2-5-.2,0,0-1.3.3-2.7,0s-2.5-1-2.5-1c0,0-1.5.6-3.8.1s-3.8-3.3-3.8-3.3l-1.4-1.9Z"/>
        <path class="st23" d="M41.8,15.7s3,.4,4.1,2.8,1.4,6.1,1.4,6.1l1.3.3,2-.4-1.7-1.2s.3-1.6-.3-3.1-2-3-2-3c0,0,.2-.5-.4-1.4-.4-.6-1.2-.3-1.2-.3,0,0-2.1-.9-2.8-1.3s-3.8-.7-3.9-.5,1.3.5,1.9.7,1.6,1.3,1.6,1.3Z"/>
        <path class="st23" d="M56.7,26.8s.2,2.1,0,3.3-1.2,2.1-1.2,2.1c0,0,.8,4,.6,5.7s-1.6,4.1-1.6,4.1v1.8l-1.7,1.6-.5-2.8,1.5-4.6v-5.4s1-1.3,1.6-2.1,1.3-3.8,1.3-3.8Z"/>
        <path class="st23" d="M62.4,33.1c0,.4-1,3.1-1.7,4s-2.3,1-2.3,1c0,0,1.3.8,1.8,1.2s1.3,2,1.3,2v-1.2c-.1,0-.7-1.3-.7-1.3,0,0,1.1-1.9,1.3-2.7s.3-3,.3-3Z"/>
        <path class="st23" d="M11.4,46.2s.6.3,1.9.5,2.3,0,2.3,0c0,0-.3,3.3,1.5,4.1s3.7-.6,3.7-.6c0,0,1,2.3,3.2,2.7s2.8-.5,2.8-.5c0,0-1,1-.1,2-1.2.3-2.6.4-4.1,0s-2-1.6-2-1.6c0,0-1.9.7-4.1,0s-2.5-3.6-2.5-3.6c0,0-1.6,0-2.1-1.2s-.5-1.9-.5-1.9Z"/>
        <path class="st23" d="M48.9,52.2c.5,0,2.4.2,3.3-.3s2.2-1.9,2.2-1.9c0,0,3.5-.1,4.6-.9s1.1-2.1,1.1-2.1c0,0,2.3-.5,2.7-1.1s.6-2.9.6-2.9c0,0,1.1,2.7,0,3.9s-2,1.3-2,1.3c0,0-.2,2.4-1.8,3.4s-4.6.3-4.6.3c0,0-.7,1.1-2.1,1.7s-3.2.3-3.6,0c.7-.3-.3-1.6-.3-1.6Z"/>
        <path class="st23" d="M29.9,51.3s5.2.8,7.2.7,6.6-.7,6.6-.7c0,0-3.3,4-6.7,4s-7.2-4-7.2-4Z"/>
        <path class="st23" d="M26.9,61.2s3.7-.2,5.5-1.3,3.7-4,3.7-4c0,0,.5.4,1.2.3s1.1-.3,1.1-.3c0,0,1.1,2.2,2.7,3.5s6.9.3,6.4,1-4.4,1-5.5,1.1-3.1-2.3-3.5-3-.6-1.1-.6-1.1h-1c0,0-1.3,2.2-2.3,3.2s-1.8,1.3-4,1.6-3.6-1-3.6-1Z"/>
        <path class="st23" d="M38.3,13.7l1.1.4s2.8,10.3,2.6,11.2c-.3.6-1.2,1.2-1.9,1.2s-2.1-.1-2.1-.1c0,0,1.6-.5,1.9-1.4,0-1.1-1.6-11.3-1.6-11.3Z"/>
        <path class="st23" d="M19.7,26.5s1.3,4.9,2.2,4.9,2.2-1.5,2.2-1.5c0,0,0-.9-1.6-1.7s-2.7-1.6-2.7-1.6Z"/>
        <path class="st23" d="M49.4,28.9s1.8-.4,2.5-1.6,2.6-1.5,2.6-1.5c0,0-1.5,3.8-1.3,3.2s-1.2,2.5-2.1,2.3-1.7-2.4-1.7-2.4Z"/>
      </g>
      <path id="_角3" data-name="角" class="st23" d="M36.9,7.8c-.5,0,.5,3.4.5,3.9s-.2.7-.5.8-1.2.6-1.1.6,1.2-.1,1.2-.1l.6-.2s.3,1.9.3,2.5,0,1.2-.4,1.4-1.3.3-1.3.3h1.3l.6-.3s.3,1.1.3,1.8,0,1.3-.3,1.6-.9.7-1.1.8l-1,.3h1.6c0,.1,1.2-.4,1.2-.4v1.7c0,.5.1.9-.1,1.2s-1.3.6-1.6.7l-.6.2h1.1c0,0,1.2-.2,1.2-.2,0,0,.3.6,0,.9s-1.7.5-1.7.5l-.9.2s1.1.4,2.1,0,1.7-.7,1.9-1.4-2.2-15.9-3.1-17.1Z"/>
      <g>
        <path class="st22" d="M35.1,13.9s-.3,2.7-.3,3.2c.4,0,1.1,0,1.6,0s1-.3,1-.3c0,0-1.7.2-1.9,0s-.4-1-.4-1.7,0-1.8,0-1.8v.6Z"/>
        <path class="st22" d="M34.8,17.2c0,0-.2,2.5-.2,3.8.4.2,1,.3,1.4.3.9-.1,1.8-.8,1.8-.8,0,0-1.2.5-1.8.5s-.8-.3-.9-.5-.2-1.6-.3-2.1,0-1.2,0-1.2Z"/>
        <path class="st22" d="M34.5,22.1s0,2,0,2.5c1,.1,1.2.2,2.1,0s1.7-.6,1.7-.6c0,0-2.3.4-2.8.2s-.6-.4-.7-1-.2-2.1-.2-2.1v.9Z"/>
        <path class="st22" d="M35.5,12.8c-.2-.2.2-2,.2-2l.2-.9c0,.1.2.2.3.2s.3-.1.3-.3-.1-.3-.3-.3-.2,0-.2,0l.4-1.9c-.4.1-.8,2.3-.8,2.6s0,.5-.1.8-.3,1.9-.3,1.9c0,0,.4,0,.8,0,.7-.2,1-.5,1-.5,0,0-1.3.5-1.5.3Z"/>
        <circle class="st22" cx="36.4" cy="10.4" r=".1"/>
        <circle class="st22" cx="35.5" cy="15.9" r=".3"/>
        <circle class="st22" cx="35.2" cy="20" r=".4"/>
        <circle class="st22" cx="37.2" cy="43.8" r=".1"/>
        <path class="st22" d="M25.9,23.7c.4-.7.9-1.3,1.8-2s2.2-.9,2.2-.9c0,0-1.8,1.3-2.4,2s-1,1.5-1.3,2.5.4,4.1.4,4.1c0,0-.7-.9-1-2.5s-.2-2.4.2-3.1Z"/>
        <path class="st22" d="M29.9,20.8s-1.2-2-.2-3.9,2.2-1.9,2.2-1.9c0,0-1.3,1.7-1.5,2.2-.4.8-.6,3.6-.6,3.6Z"/>
        <path class="st22" d="M15.8,23.9c.2-1.5,1.1-3.3,2.3-4.8s3.2-2.6,3.2-2.6c0,0-2.2,2.2-3.3,3.9s-1.2,4.4-1.2,4.4c0,0-1.5.9-2.8,2.4s-1.7,4.7-1.7,4.7c0,0-.2-2.7.8-5.1,1-2.3,2.6-2.9,2.6-2.9Z"/>
        <circle class="st22" cx="18.7" cy="20.5" r=".7"/>
        <circle class="st22" cx="19.7" cy="20.6" r=".1"/>
        <circle class="st22" cx="30.5" cy="18.4" r=".5"/>
        <circle class="st22" cx="31.6" cy="18.9" r=".3"/>
        <circle class="st22" cx="35.9" cy="20.3" r=".2"/>
      </g>
    </g>
  </g>
</svg>